<svg xmlns="http://www.w3.org/2000/svg" xmlns:xlink="http://www.w3.org/1999/xlink" width="500" zoomAndPan="magnify" viewBox="0 0 375 374.999991" height="500" preserveAspectRatio="xMidYMid meet" version="1.0"><defs><g/><clipPath id="0edba3462a"><path d="M 37.5 131.25 L 150 131.25 L 150 243.75 L 37.5 243.75 Z M 37.5 131.25 " clip-rule="nonzero"/></clipPath><clipPath id="23e4ff8725"><path d="M 93.75 131.25 C 62.683594 131.25 37.5 156.433594 37.5 187.5 C 37.5 218.566406 62.683594 243.75 93.75 243.75 C 124.816406 243.75 150 218.566406 150 187.5 C 150 156.433594 124.816406 131.25 93.75 131.25 Z M 93.75 131.25 " clip-rule="nonzero"/></clipPath><clipPath id="24f329bf8e"><path d="M 131.25 131.25 L 243.75 131.25 L 243.75 243.75 L 131.25 243.75 Z M 131.25 131.25 " clip-rule="nonzero"/></clipPath><clipPath id="c9674727ab"><path d="M 187.5 131.25 C 156.433594 131.25 131.25 156.433594 131.25 187.5 C 131.25 218.566406 156.433594 243.75 187.5 243.75 C 218.566406 243.75 243.75 218.566406 243.75 187.5 C 243.75 156.433594 218.566406 131.25 187.5 131.25 Z M 187.5 131.25 " clip-rule="nonzero"/></clipPath><clipPath id="05f28102ee"><path d="M 225 131.25 L 337.5 131.25 L 337.5 243.75 L 225 243.75 Z M 225 131.25 " clip-rule="nonzero"/></clipPath><clipPath id="f51524c421"><path d="M 281.25 131.25 C 250.183594 131.25 225 156.433594 225 187.5 C 225 218.566406 250.183594 243.75 281.25 243.75 C 312.316406 243.75 337.5 218.566406 337.5 187.5 C 337.5 156.433594 312.316406 131.25 281.25 131.25 Z M 281.25 131.25 " clip-rule="nonzero"/></clipPath></defs><g clip-path="url(#0edba3462a)"><g clip-path="url(#23e4ff8725)"><path fill="#000000" d="M 37.5 131.25 L 150 131.25 L 150 243.75 L 37.5 243.75 Z M 37.5 131.25 " fill-opacity="1" fill-rule="nonzero"/></g></g><g clip-path="url(#24f329bf8e)"><g clip-path="url(#c9674727ab)"><path fill="#000000" d="M 131.25 131.25 L 243.75 131.25 L 243.75 243.75 L 131.25 243.75 Z M 131.25 131.25 " fill-opacity="1" fill-rule="nonzero"/></g></g><g clip-path="url(#05f28102ee)"><g clip-path="url(#f51524c421)"><path fill="#000000" d="M 225 131.25 L 337.5 131.25 L 337.5 243.75 L 225 243.75 Z M 225 131.25 " fill-opacity="1" fill-rule="nonzero"/></g></g><g fill="#ffffff" fill-opacity="1"><g transform="translate(79.792968, 203.624987)"><g><path d="M 12.742188 -18.261719 L 10.742188 -18.261719 L 10.742188 -28.953125 L 13.574219 -28.902344 C 17.722656 -28.902344 19.820312 -26.558594 19.820312 -23.09375 C 19.820312 -20.40625 17.039062 -18.554688 12.742188 -18.261719 Z M 19.917969 -17.625 C 23.386719 -19.140625 25.386719 -21.578125 25.386719 -24.605469 C 25.386719 -29.148438 21.824219 -32.222656 14.941406 -32.222656 L 3.125 -32.222656 L 3.125 -27 L 5.417969 -27.097656 L 5.417969 -5.125 L 3.125 -5.222656 L 3.125 0 L 14.746094 0 C 22.800781 0 28.171875 -3.855469 28.171875 -9.617188 C 28.171875 -13.476562 25.386719 -16.355469 19.917969 -17.578125 Z M 10.742188 -3.269531 L 10.742188 -14.988281 L 15.085938 -14.988281 C 20.066406 -14.988281 22.605469 -12.644531 22.605469 -9.128906 C 22.605469 -5.613281 19.480469 -3.269531 14.746094 -3.269531 Z M 10.742188 -3.269531 "/></g></g></g><g fill="#ffffff" fill-opacity="1"><g transform="translate(110.403417, 203.624987)"><g><path d="M 25.972656 -1.609375 C 25.972656 -3.515625 25.972656 -6.054688 26.023438 -7.957031 L 20.308594 -7.957031 L 19.625 -3.269531 L 10.742188 -3.269531 L 10.742188 -27.097656 L 13.183594 -27 L 13.183594 -32.222656 L 3.125 -32.222656 L 3.125 -27 L 5.417969 -27.097656 L 5.417969 -5.125 L 3.125 -5.222656 L 3.125 0 L 25.972656 0 Z M 25.972656 -1.609375 "/></g></g></g><g fill="#ffffff" fill-opacity="1"><g transform="translate(139.793353, 203.624987)"><g><path d="M 21.042969 -2.488281 C 13.914062 -2.488281 9.128906 -8.691406 9.128906 -18.015625 C 9.128906 -25.09375 12.988281 -29.78125 18.75 -29.78125 C 25.828125 -29.78125 30.5625 -23.433594 30.5625 -13.964844 C 30.5625 -7.078125 26.753906 -2.488281 21.042969 -2.488281 Z M 3.417969 -15.917969 C 3.417969 -6.101562 9.960938 0.488281 19.820312 0.488281 C 29.683594 0.488281 36.226562 -6.101562 36.226562 -16.015625 C 36.226562 -26.023438 29.683594 -32.710938 19.820312 -32.710938 C 9.960938 -32.710938 3.417969 -26.023438 3.417969 -15.917969 Z M 3.417969 -15.917969 "/></g></g></g><g fill="#ffffff" fill-opacity="1"><g transform="translate(179.435592, 203.624987)"><g><path d="M 32.027344 -9.03125 L 34.128906 -8.933594 C 34.175781 -8.933594 34.175781 -9.960938 34.128906 -11.523438 C 34.175781 -13.085938 34.175781 -14.160156 34.128906 -14.160156 L 24.265625 -14.160156 L 24.265625 -8.933594 L 26.65625 -9.03125 L 26.65625 -3.855469 C 25.289062 -3.320312 23.386719 -2.976562 21.335938 -2.976562 C 13.867188 -2.976562 8.933594 -8.496094 8.933594 -16.84375 C 8.933594 -24.558594 13.621094 -29.683594 20.699219 -29.683594 C 22.019531 -29.683594 23.433594 -29.441406 24.753906 -29 C 24.996094 -28.855469 25.191406 -28.5625 25.242188 -28.269531 C 25.4375 -26.851562 25.730469 -24.996094 25.972656 -23.582031 C 26.804688 -23.628906 27.878906 -23.628906 28.707031 -23.679688 C 29.539062 -23.726562 30.613281 -23.777344 31.441406 -23.777344 L 31.199219 -30.464844 C 29.585938 -31.785156 25.4375 -32.664062 20.699219 -32.664062 C 10.351562 -32.664062 3.417969 -25.632812 3.417969 -15.039062 C 3.417969 -5.710938 9.910156 0.535156 19.675781 0.535156 C 24.65625 0.535156 29.585938 -1.367188 32.027344 -4.246094 Z M 32.027344 -9.03125 "/></g></g></g><g fill="#ffffff" fill-opacity="1"><g transform="translate(215.85568, 203.624987)"><g><path d="M 8.347656 0 L 13.28125 0 L 13.28125 -5.222656 L 11.035156 -5.125 L 11.035156 -27.097656 L 13.28125 -27 L 13.28125 -32.222656 L 3.417969 -32.222656 L 3.417969 -27 L 5.664062 -27.097656 L 5.664062 -5.125 L 3.417969 -5.222656 L 3.417969 0 Z M 8.347656 0 "/></g></g></g><g fill="#ffffff" fill-opacity="1"><g transform="translate(232.552288, 203.624987)"><g><path d="M 20.210938 -32.222656 L 3.125 -32.222656 L 3.125 -27 L 5.417969 -27.097656 L 5.417969 -5.125 L 3.125 -5.222656 L 3.125 0 L 13.476562 0 L 13.476562 -5.222656 L 10.742188 -5.125 L 10.742188 -14.988281 L 15.867188 -14.988281 L 15.769531 -12.695312 L 21.480469 -12.695312 L 21.480469 -20.503906 L 15.769531 -20.503906 L 15.867188 -18.210938 L 10.742188 -18.210938 L 10.742188 -28.953125 L 19.042969 -28.953125 L 19.675781 -25.679688 L 25.144531 -25.679688 L 25.144531 -32.222656 Z M 20.210938 -32.222656 "/></g></g></g><g fill="#ffffff" fill-opacity="1"><g transform="translate(261.112277, 203.624987)"><g><path d="M 14.597656 -5.125 L 12.058594 -5.222656 L 12.058594 0 L 22.507812 0 L 22.507812 -5.222656 L 19.96875 -5.125 L 19.96875 -15.183594 L 28.5625 -27.828125 L 29.636719 -27.78125 C 29.636719 -27.78125 30.027344 -28.660156 30.613281 -30.027344 C 31.148438 -31.34375 31.539062 -32.222656 31.539062 -32.222656 L 24.3125 -32.222656 C 24.3125 -32.222656 24.265625 -31.148438 24.167969 -29.585938 C 24.070312 -28.171875 24.019531 -27.195312 24.019531 -27.046875 L 18.210938 -18.457031 L 11.765625 -27.097656 L 11.816406 -27.097656 L 11.863281 -27 C 11.863281 -27 11.667969 -28.023438 11.472656 -29.585938 C 11.230469 -31.148438 11.082031 -32.222656 11.082031 -32.222656 L 2.292969 -32.222656 L 2.34375 -32.125 C 2.488281 -31.882812 2.878906 -31.003906 3.515625 -29.78125 C 4.246094 -28.269531 4.734375 -27.292969 4.734375 -27.292969 L 5.808594 -27.339844 L 14.597656 -15.085938 Z M 14.597656 -5.125 "/></g></g></g></svg>